<svg width="47" height="47" viewBox="0 0 47 47" fill="none" xmlns="http://www.w3.org/2000/svg">
<path d="M40.5785 33.9468C33.165 38.6472 22.0337 44.1974 19.0142 44.5365C15.9946 44.8772 11.6985 42.2833 7.14791 39.7739C3.97831 38.0268 4.10977 34.9187 6.79274 31.5548C5.11818 30.1482 4.96904 28.1563 6.10143 25.94C6.33897 25.4731 6.63453 24.9962 6.98404 24.513C2.65258 21.9669 4.93481 16.7214 11.6985 11.9321C17.661 7.70894 26.3985 2.13132 30.0164 2.22267C30.5529 2.23558 30.9768 2.37249 31.2637 2.65944C31.3068 2.70273 31.3512 2.74602 31.3963 2.78909C31.4172 2.77503 31.4303 2.76665 31.4335 2.76461C31.5124 2.71429 31.6169 2.73741 31.6672 2.81628C31.7091 2.88156 31.6996 2.96452 31.6502 3.01982C33.5605 4.7141 36.9774 6.45212 39.4742 7.8429C39.4822 7.83383 39.4906 7.82522 39.4983 7.81638C39.5597 7.74566 39.6667 7.73818 39.7374 7.79984C39.799 7.85333 39.8124 7.94172 39.7739 8.0104C40.2592 8.28307 40.7052 8.54214 41.0887 8.78354C41.2696 8.89754 41.4294 9.01835 41.5681 9.14211C43.3551 10.7564 41.8551 13.2068 41.8551 13.2068C42.6198 13.2068 43.4798 15.0937 42.3956 16.9705C43.8118 18.5766 42.4505 20.8008 42.4505 20.8008C43.3367 20.8008 44.3513 23.3355 42.3175 25.45C42.7721 26.8752 41.8551 28.3739 41.8551 28.3739C42.8757 28.3739 44.0659 31.7341 40.5785 33.9468Z" fill="#F868A7"/>
<path d="M41.8551 28.3739C41.8551 28.3739 42.7723 26.8752 42.3177 25.45C42.1778 25.5955 42.0235 25.7389 41.8537 25.8795C41.6499 26.0508 41.4233 26.2154 41.1739 26.3736C40.1207 27.0404 38.9939 27.7252 37.8251 28.4099C36.7081 29.0638 35.5537 29.7175 34.3912 30.3551C32.2472 31.5337 30.0772 32.6588 28.0635 33.6371C25.6668 34.8012 23.495 35.7584 21.8612 36.3436C20.9059 36.6877 20.1348 36.9046 19.6096 36.9633C16.5901 37.304 12.2937 34.7099 7.74334 32.2005C7.38386 32.0024 7.06835 31.7862 6.79273 31.5548C4.10954 34.9184 3.97831 38.0266 7.14791 39.7737C11.6983 42.283 15.9946 44.8771 19.0142 44.5362C22.0337 44.1971 33.1647 38.6472 40.5785 33.9465C44.0659 31.7341 42.8757 28.3739 41.8551 28.3739ZM8.13274 33.7527C7.21001 34.7414 6.58058 35.723 6.2619 36.67C6.2381 36.741 6.17214 36.7856 6.10142 36.7856C6.08352 36.7856 6.06538 36.7827 6.04748 36.7766C5.95885 36.7466 5.91103 36.6508 5.94095 36.5621C6.27504 35.5687 6.92918 34.5458 7.885 33.5217C7.94892 33.4533 8.05613 33.4494 8.12458 33.5133C8.1928 33.577 8.19666 33.6842 8.13274 33.7527ZM41.6647 28.7469C41.5915 28.7984 34.2715 33.9218 28.1653 36.2314C26.5488 36.843 25.2339 37.3706 24.1559 37.8797C23.9898 38.0218 22.0031 39.7607 21.7982 41.7368C21.7892 41.8238 21.7157 41.8886 21.6298 41.8886C21.6242 41.8886 21.618 41.8884 21.6121 41.8877C21.5192 41.878 21.4517 41.7948 21.4612 41.7019C21.6022 40.3437 22.4895 39.1266 23.1661 38.3788C20.8807 39.6177 19.902 40.8718 19.2726 43.1051C19.2515 43.1797 19.1835 43.2286 19.1096 43.2286C19.0944 43.2286 19.079 43.2266 19.0636 43.2221C18.9736 43.1967 18.9213 43.1033 18.9464 43.0131C19.4691 41.1586 20.2286 39.9924 21.5679 38.9878C22.9701 37.9361 25.0048 37.0646 28.0454 35.9146C34.111 33.6203 41.3968 28.521 41.4697 28.47C41.5461 28.416 41.652 28.4344 41.7057 28.511C41.7596 28.5874 41.741 28.693 41.6647 28.7469Z" fill="#940555"/>
<path d="M8.37438 26.6019C7.43533 26.2755 6.65789 26.0676 6.10144 25.94C6.33898 25.4731 6.63454 24.9962 6.98405 24.513C7.03777 24.5445 7.09194 24.5762 7.14792 24.6071C11.6983 27.1164 15.9946 29.7103 19.0142 29.3694C19.7755 29.2839 21.053 28.8669 22.6559 28.2159C23.456 28.7307 24.2144 29.2783 24.9085 29.8592C23.7888 30.3719 22.8907 30.869 22.1634 31.4145C21.152 32.1732 20.4714 33.0245 19.9736 34.1945C15.8904 29.9286 11.6217 27.7807 8.71867 26.7245C8.76582 26.6724 8.81296 26.6202 8.86147 26.5683C8.92538 26.4999 8.92176 26.3927 8.85331 26.329C8.78486 26.2651 8.67765 26.2689 8.61395 26.3371C8.53145 26.4255 8.45235 26.5137 8.37438 26.6019ZM25.1931 30.1026C25.0417 30.1708 24.8944 30.2386 24.7514 30.3062C24.585 30.4485 22.5988 32.1874 22.3937 34.1632C22.3846 34.2503 22.3112 34.3151 22.2255 34.3151C22.2196 34.3151 22.2137 34.3149 22.2076 34.3142C22.1147 34.3047 22.0471 34.2212 22.0566 34.1283C22.1976 32.7702 23.085 31.553 23.7616 30.8053C21.8685 31.8316 20.8719 32.8683 20.228 34.4633C20.7776 35.0506 21.3234 35.6762 21.8613 36.3439C23.495 35.7584 25.6666 34.8015 28.0636 33.6374C27.418 32.3488 26.4162 31.1711 25.1931 30.1026ZM35.9295 25.1551C34.5662 25.936 33.0875 26.7302 31.6047 27.4348C32.5675 28.3247 33.5025 29.2953 34.3912 30.3551C35.5537 29.7175 36.7081 29.0638 37.8251 28.4102C37.2652 27.2288 36.6267 26.1467 35.9295 25.1551ZM31.3347 27.1878C32.8399 26.4781 34.3445 25.6721 35.7308 24.879C35.1605 24.0941 34.5533 23.367 33.9188 22.6945C32.2756 23.5991 30.6148 24.4738 29.0192 25.2761C29.8018 25.8661 30.5763 26.5024 31.3347 27.1878ZM40.5785 18.7799C39.9264 19.1933 39.2451 19.6133 38.5434 20.0358C39.1123 20.6618 39.6642 21.3701 40.1676 22.1664C41.3261 21.4137 42.0427 20.9121 42.0652 20.8962C42.1418 20.8422 42.2474 20.8608 42.3011 20.9372C42.3551 21.0138 42.3365 21.1195 42.2601 21.1732C42.2372 21.1893 41.5146 21.6949 40.3467 22.4536C40.95 23.4577 41.4729 24.5957 41.8537 25.8795C42.0235 25.739 42.1778 25.5955 42.3177 25.45C44.3513 23.3355 43.3367 20.8008 42.4505 20.8008C42.4505 20.8008 43.8118 18.5766 42.3957 16.9705C42.033 17.5983 41.4528 18.2252 40.5785 18.7799Z" fill="#D02D7F"/>
<path d="M38.061 9.1854C34.7049 11.047 29.7762 9.72462 29.2859 7.41225C28.9926 6.02895 29.581 4.88545 30.23 4.09645C30.2331 4.09917 30.2368 4.10121 30.2402 4.10371C30.2436 4.1062 30.247 4.10892 30.2506 4.11119C30.2565 4.11481 30.2628 4.11776 30.269 4.12071C30.2721 4.12207 30.2751 4.12365 30.2782 4.12501C30.2873 4.12841 30.2968 4.13113 30.3064 4.13295C30.3066 4.13295 30.3068 4.13317 30.3068 4.13317C30.3177 4.13521 30.3283 4.13657 30.339 4.13657C30.3866 4.13657 30.4337 4.11663 30.4673 4.0781C30.4677 4.07742 30.4684 4.07674 30.4691 4.07606C31.2359 4.71478 35.2267 7.97708 38.0495 9.04351C38.0329 9.08862 38.0352 9.1403 38.061 9.1854ZM7.14793 24.6068C7.09194 24.576 7.038 24.5445 6.98405 24.5128C2.6526 21.9667 4.93483 16.7211 11.6986 11.9318C17.661 7.70895 26.3985 2.13132 30.0165 2.22267C28.5783 2.91873 25.042 6.27759 28.1413 9.64937C30.98 12.739 37.8067 12.9035 41.5665 9.14392L41.5681 9.14234C43.3551 10.7564 41.8551 13.207 41.8551 13.207C42.6198 13.207 43.4798 15.0937 42.3957 16.9705C42.033 17.5985 41.4528 18.2252 40.5785 18.7799C39.9264 19.1933 39.2451 19.6135 38.5434 20.0358C37.0685 20.9241 35.5023 21.823 33.9191 22.6945C32.2758 23.5991 30.6148 24.4738 29.0192 25.2761C26.666 26.4595 24.4558 27.4854 22.6562 28.2159C21.0532 28.8669 19.7755 29.2839 19.0144 29.3694C15.9947 29.7103 11.6986 27.1162 7.14793 24.6068ZM28.0454 20.7475C25.005 21.8976 22.9703 22.7693 21.568 23.821C20.2286 24.8253 19.4693 25.9915 18.9467 27.846C18.9213 27.936 18.9736 28.0296 19.0638 28.055C19.079 28.0595 19.0947 28.0616 19.1096 28.0616C19.1837 28.0616 19.2517 28.0126 19.2726 27.938C19.902 25.7048 20.8807 24.4507 23.1661 23.2117C22.4896 23.9595 21.6022 25.1766 21.4612 26.5348C21.4517 26.6279 21.5192 26.7111 21.6122 26.7209C21.6181 26.7216 21.6242 26.7218 21.6298 26.7218C21.7157 26.7218 21.7892 26.657 21.7983 26.5697C22.0032 24.5941 23.9894 22.8552 24.156 22.7126C25.2339 22.2038 26.5488 21.6759 28.1653 21.0644C34.2713 18.7549 41.5915 13.6313 41.6647 13.5799C41.7413 13.5261 41.7597 13.4205 41.7059 13.3439C41.652 13.2675 41.5464 13.2489 41.47 13.3029C41.397 13.3541 34.111 18.4533 28.0454 20.7475ZM32.3345 17.101C32.2996 17.0972 28.8324 16.6928 26.4158 13.8734C26.3548 13.8027 26.248 13.7943 26.1769 13.855C26.1059 13.916 26.0975 14.023 26.1585 14.0939C28.6617 17.0142 32.1507 17.4217 32.298 17.4376C32.3041 17.4383 32.3102 17.4387 32.3164 17.4387C32.4018 17.4387 32.4753 17.3744 32.4845 17.2876C32.4947 17.1946 32.4274 17.111 32.3345 17.101ZM7.60351 18.8973C7.62142 18.9034 7.63978 18.9061 7.65768 18.9061C7.7284 18.9061 7.79436 18.8615 7.81816 18.7908C9.30821 14.3621 17.0076 10.8024 17.0853 10.767C17.1703 10.728 17.2077 10.6276 17.169 10.5426C17.1302 10.4576 17.0298 10.42 16.9446 10.459C16.6223 10.6061 9.03396 14.1148 7.49721 18.6829C7.46729 18.7715 7.51489 18.8676 7.60351 18.8973Z" fill="#F868A7"/>
<path d="M28.6409 28.3408C27.1773 28.8945 25.9475 29.3834 24.9085 29.8592C24.2147 29.2783 23.456 28.7306 22.6562 28.2159C24.4556 27.4852 26.666 26.4595 29.0191 25.2761C29.8018 25.8659 30.5763 26.5021 31.3347 27.1878C30.4285 27.6153 29.5219 28.0078 28.6409 28.3408ZM31.6046 27.4346C30.6484 27.8891 29.6905 28.3061 28.7608 28.6579C27.3584 29.1883 26.1836 29.6556 25.1929 30.1026C26.4162 31.1711 27.418 32.3488 28.0636 33.6374C30.0772 32.6591 32.2472 31.534 34.3912 30.3551C33.5025 29.2953 32.5673 28.3247 31.6046 27.4346ZM40.1676 22.1664C39.6642 21.3701 39.1123 20.6618 38.5434 20.0358C37.0685 20.9241 35.5023 21.823 33.9191 22.6945C34.5533 23.367 35.1605 24.0939 35.731 24.8788C37.4762 23.8801 39.0336 22.903 40.1676 22.1664ZM40.3467 22.4538C39.2154 23.1884 37.6664 24.1603 35.9295 25.1551C36.6267 26.1467 37.2652 27.2288 37.8251 28.4099C38.994 27.7252 40.1207 27.0405 41.174 26.3736C41.4233 26.2154 41.6499 26.0506 41.8539 25.8795C41.4729 24.5959 40.95 23.4579 40.3467 22.4538ZM19.6096 36.9634C20.1348 36.9046 20.9059 36.6877 21.8615 36.3437C21.3236 35.6759 20.7778 35.0506 20.2282 34.4631C20.1434 34.3726 20.0586 34.2831 19.9736 34.1943C15.8906 29.9283 11.6219 27.7805 8.71889 26.7243C7.87391 27.6601 7.29275 28.5883 6.99084 29.4856C6.96704 29.5564 6.90109 29.601 6.83037 29.601C6.81246 29.601 6.79433 29.5983 6.77642 29.5922C6.6878 29.5623 6.63998 29.4664 6.66989 29.3778C6.9752 28.47 7.54865 27.5375 8.3746 26.6019C7.43555 26.2755 6.65811 26.0676 6.10166 25.94C4.96905 28.1563 5.11819 30.1482 6.79297 31.5548C7.06859 31.7865 7.3841 32.0027 7.74358 32.2008C12.294 34.7101 16.5901 37.304 19.6096 36.9634ZM31.6158 3.05019C31.6099 3.05381 31.0307 3.42758 30.4691 4.07605C31.2361 4.71477 35.2267 7.97707 38.0495 9.0435C38.0626 9.00792 38.0866 8.97641 38.1218 8.95556C38.6372 8.65093 39.0919 8.27649 39.4745 7.84289C36.9774 6.45211 33.5607 4.71409 31.6504 3.01982C31.6402 3.03115 31.6291 3.04158 31.6158 3.05019ZM28.1415 9.64936C30.9802 12.739 37.8067 12.9035 41.5665 9.14391L41.5681 9.14233C41.4296 9.01834 41.2698 8.89754 41.089 8.78353C40.7052 8.54213 40.2594 8.28306 39.7741 8.01039C39.7685 8.02037 39.7619 8.02989 39.7539 8.03872C39.3428 8.51131 38.8516 8.91793 38.294 9.24727C38.2671 9.26336 38.2374 9.27084 38.2081 9.27084C38.1501 9.27084 38.0937 9.24115 38.0619 9.18766C38.0615 9.18698 38.0615 9.1863 38.061 9.18539C34.7049 11.0469 29.7762 9.72461 29.2862 7.41247C28.9926 6.02894 29.581 4.88545 30.2302 4.09645C30.2295 4.09622 30.2291 4.09577 30.2284 4.09531C30.2272 4.09441 30.2266 4.09305 30.2252 4.09191C30.2241 4.09101 30.2229 4.09033 30.2218 4.08942L30.2202 4.08783C30.2168 4.08443 30.2143 4.08058 30.2111 4.07695C30.2084 4.07401 30.2057 4.07106 30.2032 4.06766C30.1538 4.00238 30.157 3.90923 30.2157 3.84825C30.2193 3.8444 30.2236 3.84145 30.2275 3.83805C30.742 3.24829 31.2558 2.88405 31.3966 2.78908C31.3512 2.74601 31.307 2.70295 31.2638 2.65965C30.9768 2.3727 30.5529 2.2358 30.0167 2.22266C28.5785 2.91873 25.042 6.27758 28.1415 9.64936Z" fill="#F7F3EA"/>
<path d="M41.7057 28.511C41.7594 28.5874 41.7411 28.693 41.6647 28.7469C41.5912 28.7984 34.2713 33.9218 28.1653 36.2314C26.5486 36.843 25.2339 37.3706 24.1559 37.8797C23.9896 38.0218 22.0031 39.7607 21.798 41.7367C21.7892 41.8238 21.7155 41.8886 21.6298 41.8886C21.6239 41.8886 21.618 41.8884 21.6122 41.8877C21.519 41.878 21.4515 41.7948 21.4612 41.7018C21.602 40.3437 22.4896 39.1265 23.1659 38.3788C20.8805 39.6177 19.902 40.8718 19.2726 43.1051C19.2515 43.1797 19.1835 43.2286 19.1096 43.2286C19.0942 43.2286 19.0788 43.2266 19.0636 43.222C18.9736 43.1967 18.921 43.1033 18.9464 43.0131C19.4691 41.1585 20.2286 39.9924 21.5677 38.9878C22.9701 37.9361 25.0048 37.0646 28.0454 35.9146C34.111 33.6203 41.3968 28.5209 41.4695 28.4699C41.5464 28.416 41.652 28.4344 41.7057 28.511ZM23.7616 30.805C23.0852 31.5527 22.1976 32.7701 22.0569 34.1283C22.0471 34.2212 22.1147 34.3044 22.2078 34.3141C22.2137 34.3148 22.2196 34.315 22.2255 34.315C22.3112 34.315 22.3846 34.2502 22.3937 34.1632C22.5988 32.1872 24.5852 30.4485 24.7516 30.3061C24.8944 30.2386 25.0417 30.1708 25.1931 30.1023C26.1836 29.6556 27.3586 29.188 28.761 28.6576C29.6907 28.3061 30.6486 27.8888 31.6049 27.4346C33.0877 26.7299 34.5664 25.9357 35.9295 25.1551C37.6664 24.1603 39.2156 23.1883 40.3469 22.4535C41.5149 21.6949 42.2374 21.1892 42.2603 21.1731C42.3369 21.1194 42.3553 21.0138 42.3014 20.9372C42.2476 20.8608 42.142 20.8422 42.0654 20.8961C42.043 20.912 41.3263 21.4136 40.1678 22.1663C39.0338 22.903 37.4765 23.8801 35.731 24.8788C34.3447 25.6718 32.8402 26.4781 31.3351 27.1877C30.4285 27.615 29.5221 28.0076 28.6413 28.3407C27.1778 28.8943 25.9477 29.3834 24.9087 29.8589C23.789 30.3716 22.891 30.8687 22.1638 31.4142C21.1523 32.1729 20.4718 33.0242 19.9739 34.1942C20.0589 34.2828 20.1436 34.3726 20.2284 34.463C20.8719 32.8683 21.8685 31.8315 23.7616 30.805ZM28.0454 20.7474C25.005 21.8975 22.9703 22.7692 21.568 23.8209C20.2286 24.8253 19.4693 25.9914 18.9466 27.846C18.9213 27.9359 18.9736 28.0295 19.0638 28.0549C19.079 28.0595 19.0947 28.0615 19.1096 28.0615C19.1837 28.0615 19.2517 28.0125 19.2726 27.938C19.902 25.7047 20.8807 24.4506 23.1661 23.2117C22.4896 23.9594 21.6022 25.1766 21.4612 26.5347C21.4517 26.6279 21.5192 26.7111 21.6122 26.7208C21.618 26.7215 21.6242 26.7217 21.6298 26.7217C21.7157 26.7217 21.7892 26.6569 21.7982 26.5696C22.0031 24.5941 23.9894 22.8552 24.1559 22.7126C25.2339 22.2037 26.5488 21.6758 28.1653 21.0643C34.2713 18.7549 41.5915 13.6313 41.6647 13.5798C41.7413 13.5261 41.7596 13.4205 41.7059 13.3439C41.652 13.2675 41.5464 13.2489 41.47 13.3028C41.397 13.3541 34.111 18.4532 28.0454 20.7474ZM38.1218 8.95552C38.0866 8.97637 38.0626 9.00787 38.0495 9.04346C38.0329 9.08879 38.0354 9.14047 38.061 9.18535C38.0615 9.18625 38.0617 9.18693 38.0619 9.18761C38.0937 9.24111 38.1501 9.2708 38.2081 9.2708C38.2374 9.2708 38.2671 9.26332 38.294 9.24723C38.8516 8.91789 39.3428 8.51149 39.7539 8.03868C39.7619 8.02984 39.7684 8.02032 39.7741 8.01035C39.8126 7.9419 39.7993 7.8535 39.7376 7.79978C39.6669 7.73813 39.5599 7.74561 39.4985 7.81633C39.4908 7.82539 39.4824 7.83378 39.4745 7.84285C39.0919 8.27645 38.6372 8.65111 38.1218 8.95552ZM30.2275 3.83801C30.2236 3.84141 30.2193 3.84436 30.2157 3.84821C30.157 3.90895 30.1536 4.00234 30.2032 4.06762C30.2057 4.07079 30.2084 4.07374 30.2111 4.07691C30.2143 4.08054 30.2168 4.08439 30.2202 4.08756L30.2218 4.08915C30.2227 4.09028 30.2241 4.09096 30.2252 4.09187C30.2263 4.093 30.227 4.09414 30.2284 4.09527C30.2288 4.09572 30.2295 4.09595 30.23 4.0964C30.2331 4.09912 30.2368 4.10116 30.2402 4.10365C30.2436 4.10615 30.247 4.10887 30.2506 4.11113C30.2565 4.11476 30.2628 4.11771 30.2689 4.12065C30.2721 4.12201 30.2751 4.1236 30.2782 4.12496C30.2873 4.12836 30.2968 4.13108 30.3063 4.13289C30.3066 4.13289 30.3068 4.13312 30.3068 4.13312C30.3177 4.13516 30.3283 4.13652 30.339 4.13652C30.3866 4.13652 30.4337 4.11657 30.4673 4.07804C30.4677 4.07736 30.4684 4.07668 30.4691 4.076C31.0307 3.42753 31.6099 3.05377 31.6157 3.05014C31.6289 3.04153 31.64 3.0311 31.6502 3.02C31.6996 2.96469 31.7091 2.88174 31.6672 2.81623C31.6169 2.73735 31.5124 2.71446 31.4335 2.76455C31.4303 2.76659 31.4172 2.77498 31.3963 2.78903C31.2556 2.88378 30.742 3.24824 30.2275 3.83801ZM7.6035 18.8972C7.62141 18.9034 7.63976 18.9061 7.65767 18.9061C7.72839 18.9061 7.79435 18.8614 7.81815 18.7907C9.3082 14.362 17.0076 10.8023 17.0853 10.767C17.1703 10.728 17.2077 10.6276 17.169 10.5426C17.1302 10.4576 17.0298 10.42 16.9446 10.4589C16.6223 10.606 9.03394 14.1147 7.4972 18.6828C7.46728 18.7714 7.51488 18.8675 7.6035 18.8972ZM8.8533 26.3289C8.78485 26.265 8.67764 26.2689 8.61395 26.3371C8.53144 26.4255 8.45234 26.5137 8.37437 26.6018C7.54842 27.5372 6.97497 28.4699 6.66966 29.3777C6.63997 29.4663 6.68757 29.5624 6.77619 29.5921C6.7941 29.5983 6.81246 29.601 6.83037 29.601C6.90108 29.601 6.96704 29.5563 6.99084 29.4856C7.29275 28.5883 7.8739 27.6601 8.71866 26.7242C8.76558 26.6723 8.81295 26.6202 8.86146 26.5681C8.92537 26.4998 8.92175 26.3926 8.8533 26.3289ZM7.88501 33.5217C6.92919 34.5458 6.27505 35.5689 5.94096 36.5621C5.91104 36.6507 5.95886 36.7468 6.04749 36.7765C6.06539 36.7827 6.08352 36.7856 6.10143 36.7856C6.17215 36.7856 6.23811 36.741 6.26191 36.67C6.58059 35.7228 7.21002 34.7414 8.13275 33.7527C8.19667 33.6842 8.19281 33.577 8.12436 33.5133C8.05614 33.4494 7.94893 33.4533 7.88501 33.5217ZM26.4157 13.8733C26.3548 13.8026 26.248 13.7942 26.1768 13.855C26.1059 13.9159 26.0975 14.0229 26.1585 14.0939C28.6617 17.0141 32.1507 17.4217 32.298 17.4375C32.3041 17.4382 32.3102 17.4387 32.3164 17.4387C32.4018 17.4387 32.4752 17.3743 32.4845 17.2875C32.4947 17.1946 32.4274 17.1109 32.3343 17.101C32.2996 17.0971 28.8324 16.6927 26.4157 13.8733Z" fill="black"/>
</svg>
