<svg width="123" height="34" viewBox="0 0 123 34" fill="none" xmlns="http://www.w3.org/2000/svg">
<path d="M123 17.2885C123 17.5584 122.983 17.8396 122.95 18.1321H116.471C116.516 18.717 116.7 19.167 117.024 19.4819C117.359 19.7856 117.766 19.9375 118.246 19.9375C118.96 19.9375 119.457 19.6338 119.736 19.0264H122.782C122.626 19.645 122.342 20.2018 121.929 20.6968C121.527 21.1917 121.019 21.5798 120.405 21.861C119.791 22.1422 119.105 22.2828 118.346 22.2828C117.431 22.2828 116.616 22.086 115.902 21.6923C115.188 21.2986 114.63 20.7362 114.228 20.005C113.826 19.2738 113.625 18.4189 113.625 17.4403C113.625 16.4617 113.821 15.6068 114.211 14.8756C114.613 14.1445 115.171 13.582 115.885 13.1883C116.6 12.7946 117.42 12.5978 118.346 12.5978C119.25 12.5978 120.054 12.789 120.757 13.1715C121.46 13.5539 122.007 14.0995 122.397 14.8081C122.799 15.5168 123 16.3436 123 17.2885ZM120.07 16.5292C120.07 16.0342 119.903 15.6405 119.568 15.3481C119.233 15.0556 118.815 14.9094 118.313 14.9094C117.833 14.9094 117.425 15.05 117.091 15.3312C116.767 15.6124 116.566 16.0117 116.488 16.5292H120.07Z" fill="white"/>
<path d="M101.259 17.4234C101.259 16.4561 101.438 15.6068 101.795 14.8756C102.163 14.1445 102.66 13.582 103.285 13.1883C103.91 12.7946 104.607 12.5978 105.377 12.5978C106.036 12.5978 106.61 12.7328 107.102 13.0027C107.604 13.2727 107.989 13.627 108.257 14.0657V12.7328H111.119V22.1479H108.257V20.8149C107.978 21.2536 107.587 21.6079 107.085 21.8779C106.594 22.1479 106.019 22.2828 105.361 22.2828C104.602 22.2828 103.91 22.086 103.285 21.6923C102.66 21.2873 102.163 20.7193 101.795 19.9881C101.438 19.2457 101.259 18.3908 101.259 17.4234ZM108.257 17.4403C108.257 16.7204 108.056 16.1523 107.654 15.7361C107.263 15.3199 106.783 15.1118 106.214 15.1118C105.645 15.1118 105.16 15.3199 104.758 15.7361C104.367 16.1411 104.172 16.7035 104.172 17.4234C104.172 18.1433 104.367 18.717 104.758 19.1445C105.16 19.5607 105.645 19.7688 106.214 19.7688C106.783 19.7688 107.263 19.5607 107.654 19.1445C108.056 18.7283 108.257 18.1602 108.257 17.4403Z" fill="white"/>
<path d="M98.7574 10.303V22.1478H95.8948V17.2716H91.4419V22.1478H88.5793V10.303H91.4419V14.9431H95.8948V10.303H98.7574Z" fill="white"/>
<path d="M85.0625 15.0274V17.4234H77.6968V15.0274H85.0625Z" fill="white"/>
<path d="M69.0469 12.5978C69.7054 12.5978 70.2801 12.7328 70.7712 13.0027C71.2734 13.2727 71.6584 13.627 71.9262 14.0657V12.7328H74.7888V22.131C74.7888 22.9971 74.6159 23.7789 74.2699 24.4763C73.9351 25.185 73.4161 25.7474 72.713 26.1636C72.0211 26.5798 71.1562 26.7879 70.1183 26.7879C68.7344 26.7879 67.6128 26.4561 66.7535 25.7924C65.8942 25.14 65.4031 24.2513 65.2803 23.1265H68.1095C68.1987 23.4864 68.4108 23.7677 68.7456 23.9701C69.0804 24.1839 69.4933 24.2907 69.9844 24.2907C70.5759 24.2907 71.0446 24.1164 71.3906 23.7677C71.7477 23.4302 71.9262 22.8846 71.9262 22.131V20.798C71.6472 21.2367 71.2622 21.5967 70.7712 21.8779C70.2801 22.1479 69.7054 22.2828 69.0469 22.2828C68.2769 22.2828 67.5793 22.086 66.9544 21.6923C66.3294 21.2873 65.8328 20.7193 65.4645 19.9881C65.1074 19.2457 64.9288 18.3908 64.9288 17.4234C64.9288 16.4561 65.1074 15.6068 65.4645 14.8756C65.8328 14.1445 66.3294 13.582 66.9544 13.1883C67.5793 12.7946 68.2769 12.5978 69.0469 12.5978ZM71.9262 17.4403C71.9262 16.7204 71.7254 16.1523 71.3236 15.7361C70.933 15.3199 70.4531 15.1118 69.8839 15.1118C69.3148 15.1118 68.8293 15.3199 68.4275 15.7361C68.0369 16.1411 67.8416 16.7035 67.8416 17.4234C67.8416 18.1433 68.0369 18.717 68.4275 19.1445C68.8293 19.5607 69.3148 19.7688 69.8839 19.7688C70.4531 19.7688 70.933 19.5607 71.3236 19.1445C71.7254 18.7283 71.9262 18.1602 71.9262 17.4403Z" fill="white"/>
<path d="M58.9052 12.6315C59.9989 12.6315 60.8694 12.9915 61.5167 13.7114C62.1751 14.42 62.5044 15.3987 62.5044 16.6473V22.1478H59.6585V17.0353C59.6585 16.4054 59.4967 15.9161 59.173 15.5674C58.8494 15.2187 58.4142 15.0443 57.8673 15.0443C57.3205 15.0443 56.8852 15.2187 56.5616 15.5674C56.2379 15.9161 56.0761 16.4054 56.0761 17.0353V22.1478H53.2135V12.7327H56.0761V13.9813C56.3663 13.5651 56.7569 13.2389 57.2479 13.0027C57.739 12.7552 58.2914 12.6315 58.9052 12.6315Z" fill="white"/>
<path d="M50.1529 12.7327V22.1478H47.2903V20.8655C47.0001 21.2817 46.6039 21.6191 46.1017 21.8779C45.6107 22.1253 45.0638 22.2491 44.4612 22.2491C43.7469 22.2491 43.1164 22.0916 42.5695 21.7766C42.0227 21.4504 41.5986 20.9836 41.2973 20.3762C40.9959 19.7687 40.8453 19.0544 40.8453 18.2333V12.7327H43.6911V17.8452C43.6911 18.4751 43.853 18.9645 44.1766 19.3132C44.5002 19.6619 44.9355 19.8362 45.4823 19.8362C46.0403 19.8362 46.4812 19.6619 46.8048 19.3132C47.1285 18.9645 47.2903 18.4751 47.2903 17.8452V12.7327H50.1529Z" fill="white"/>
<path d="M37.6123 10.303V18.3683C37.6123 19.6169 37.2608 20.5786 36.5577 21.2536C35.8657 21.9285 34.9283 22.2659 33.7453 22.2659C32.5065 22.2659 31.5133 21.9116 30.7655 21.2029C30.0178 20.4943 29.6439 19.4875 29.6439 18.1827H32.4898C32.4898 18.6776 32.5902 19.0545 32.7911 19.3132C32.992 19.5606 33.2821 19.6844 33.6616 19.6844C34.0076 19.6844 34.2754 19.5719 34.4651 19.3469C34.6549 19.122 34.7497 18.7957 34.7497 18.3683V10.303H37.6123Z" fill="white"/>
<path d="M14.7667 10.8808L5.25989 11.6139C5.25989 18.5512 5.25989 28.7354 5.25989 29.2107H23.5898L23.8342 24.323C23.8342 23.8423 23.8342 16.9759 23.8342 11.6139L14.7667 10.8808Z" fill="white"/>
<path d="M19.9235 5.25992L21.0724 8.43692L19.9235 11.6139H5.25989C5.25989 8.12755 5.25989 5.4608 5.25989 5.25992C5.8303 5.25992 14.6384 5.25992 19.9235 5.25992Z" fill="white"/>
<path d="M17.4797 8.43692C17.4797 8.50084 17.4732 8.56475 17.4609 8.62759C17.4485 8.69044 17.4297 8.75167 17.405 8.81075C17.3808 8.87037 17.3508 8.92676 17.3148 8.97994C17.2793 9.03311 17.2385 9.08253 17.1934 9.12818C17.1477 9.1733 17.0983 9.21412 17.0452 9.24957C16.992 9.28555 16.9356 9.31563 16.876 9.3398C16.8169 9.36451 16.7557 9.38331 16.6928 9.39566C16.63 9.40801 16.5661 9.41446 16.5021 9.41446C16.4377 9.41446 16.3743 9.40801 16.3115 9.39566C16.2486 9.38331 16.1874 9.36451 16.1278 9.3398C16.0687 9.31563 16.0123 9.28555 15.9591 9.24957C15.9054 9.21412 15.856 9.1733 15.8109 9.12818C15.7652 9.08253 15.7249 9.03311 15.689 8.97994C15.6535 8.92676 15.6234 8.87037 15.5987 8.81075C15.5745 8.75167 15.5557 8.69044 15.5434 8.62759C15.5305 8.56475 15.5246 8.50084 15.5246 8.43692C15.5246 8.37247 15.5305 8.30909 15.5434 8.24625C15.5557 8.1834 15.5745 8.12217 15.5987 8.06255C15.6234 8.00347 15.6535 7.94708 15.689 7.8939C15.7249 7.84019 15.7652 7.79078 15.8109 7.74566C15.856 7.70001 15.9054 7.65972 15.9591 7.62427C16.0123 7.58829 16.0687 7.55821 16.1278 7.5335C16.1874 7.50933 16.2486 7.49053 16.3115 7.47818C16.3743 7.46529 16.4377 7.45938 16.5021 7.45938C16.5661 7.45938 16.63 7.46529 16.6928 7.47818C16.7557 7.49053 16.8169 7.50933 16.876 7.5335C16.9356 7.55821 16.992 7.58829 17.0452 7.62427C17.0983 7.65972 17.1477 7.70001 17.1934 7.74566C17.2385 7.79078 17.2793 7.84019 17.3148 7.8939C17.3508 7.94708 17.3808 8.00347 17.405 8.06255C17.4297 8.12217 17.4485 8.1834 17.4609 8.24625C17.4732 8.30909 17.4797 8.37247 17.4797 8.43692Z" fill="white"/>
<path d="M13.5695 8.43692C13.5695 8.50084 13.5631 8.56475 13.5507 8.62759C13.5378 8.69044 13.5196 8.75167 13.4948 8.81075C13.4701 8.87037 13.4401 8.92676 13.4046 8.97994C13.3686 9.03311 13.3283 9.08253 13.2827 9.12818C13.2376 9.1733 13.1882 9.21412 13.135 9.24957C13.0813 9.28555 13.0249 9.31563 12.9658 9.3398C12.9067 9.36451 12.8455 9.38331 12.7821 9.39566C12.7193 9.40801 12.6559 9.41446 12.5914 9.41446C12.5275 9.41446 12.4641 9.40801 12.4008 9.39566C12.3379 9.38331 12.2767 9.36451 12.2176 9.3398C12.158 9.31563 12.1021 9.28555 12.0484 9.24957C11.9952 9.21412 11.9458 9.1733 11.9002 9.12818C11.8551 9.08253 11.8142 9.03311 11.7788 8.97994C11.7433 8.92676 11.7133 8.87037 11.6885 8.81075C11.6638 8.75167 11.6456 8.69044 11.6327 8.62759C11.6203 8.56475 11.6139 8.50084 11.6139 8.43692C11.6139 8.37247 11.6203 8.30909 11.6327 8.24625C11.6456 8.1834 11.6638 8.12217 11.6885 8.06255C11.7133 8.00347 11.7433 7.94708 11.7788 7.8939C11.8142 7.84019 11.8551 7.79078 11.9002 7.74566C11.9458 7.70001 11.9952 7.65972 12.0484 7.62427C12.1021 7.58829 12.158 7.55821 12.2176 7.5335C12.2767 7.50933 12.3379 7.49053 12.4008 7.47818C12.4641 7.46529 12.5275 7.45938 12.5914 7.45938C12.6559 7.45938 12.7193 7.46529 12.7821 7.47818C12.8455 7.49053 12.9067 7.50933 12.9658 7.5335C13.0249 7.55821 13.0813 7.58829 13.135 7.62427C13.1882 7.65972 13.2376 7.70001 13.2827 7.74566C13.3283 7.79078 13.3686 7.84019 13.4046 7.8939C13.4401 7.94708 13.4701 8.00347 13.4948 8.06255C13.5196 8.12217 13.5378 8.1834 13.5507 8.24625C13.5631 8.30909 13.5695 8.37247 13.5695 8.43692Z" fill="white"/>
<path d="M9.65881 8.43692C9.65881 8.50084 9.65237 8.56475 9.64001 8.62759C9.62766 8.69044 9.60886 8.75167 9.58416 8.81075C9.55999 8.87037 9.52991 8.92676 9.49392 8.97994C9.45847 9.03311 9.41765 9.08253 9.37253 9.12818C9.32688 9.1733 9.27747 9.21412 9.22429 9.24957C9.17112 9.28555 9.11472 9.31563 9.0551 9.3398C8.99602 9.36451 8.93479 9.38331 8.87195 9.39566C8.80911 9.40801 8.74519 9.41446 8.68127 9.41446C8.61682 9.41446 8.55344 9.40801 8.4906 9.39566C8.42776 9.38331 8.36653 9.36451 8.30691 9.3398C8.24783 9.31563 8.19143 9.28555 8.13826 9.24957C8.08455 9.21412 8.03513 9.1733 7.99001 9.12818C7.94436 9.08253 7.90408 9.03311 7.86863 8.97994C7.83264 8.92676 7.80256 8.87037 7.77786 8.81075C7.75369 8.75167 7.73489 8.69044 7.72253 8.62759C7.70964 8.56475 7.70374 8.50084 7.70374 8.43692C7.70374 8.37247 7.70964 8.30909 7.72253 8.24625C7.73489 8.1834 7.75369 8.12217 7.77786 8.06255C7.80256 8.00347 7.83264 7.94708 7.86863 7.8939C7.90408 7.84019 7.94436 7.79078 7.99001 7.74566C8.03513 7.70001 8.08455 7.65972 8.13826 7.62427C8.19143 7.58829 8.24783 7.55821 8.30691 7.5335C8.36653 7.50933 8.42776 7.49053 8.4906 7.47818C8.55344 7.46529 8.61682 7.45938 8.68127 7.45938C8.74519 7.45938 8.80911 7.46529 8.87195 7.47818C8.93479 7.49053 8.99602 7.50933 9.0551 7.5335C9.11472 7.55821 9.17112 7.58829 9.22429 7.62427C9.27747 7.65972 9.32688 7.70001 9.37253 7.74566C9.41765 7.79078 9.45847 7.84019 9.49392 7.8939C9.52991 7.94708 9.55999 8.00347 9.58416 8.06255C9.60886 8.12217 9.62766 8.1834 9.64001 8.24625C9.65237 8.30909 9.65881 8.37247 9.65881 8.43692Z" fill="white"/>
<path d="M26.5225 24.323C27.1976 24.323 27.7444 24.8698 27.7444 25.5449C27.7444 26.2206 27.1971 26.7668 26.5225 26.7668L25.0562 27.3942L23.5898 26.7668C22.9147 26.7668 22.3679 26.2201 22.3679 25.5449C22.3679 24.8692 22.9152 24.323 23.5898 24.323H26.5225Z" fill="#D63484"/>
<path d="M23.8342 5.25992C23.8342 5.55694 23.8342 8.29781 23.8342 11.6139H19.9235V5.25992C22.0746 5.25992 23.6425 5.25992 23.8342 5.25992Z" fill="white"/>
<path d="M21.3308 21.3146C21.1831 21.1626 14.6937 24.323 14.6937 24.323C14.6937 24.323 7.82947 21.1798 7.75213 21.2308C7.26605 17.1246 10.4683 13.5695 14.5471 13.5695C18.6834 13.5695 21.8743 17.2117 21.3308 21.3146Z" fill="#D63484"/>
<path d="M21.3307 21.3146C20.8898 24.6678 18.0205 27.2556 14.547 27.2556C11.044 27.2556 8.15652 24.6243 7.75208 21.2309C8.29402 20.8737 10.4752 19.663 12.5393 21.7202C14.9187 24.091 17.5344 21.1379 17.5344 21.1379C17.5344 21.1379 19.2161 19.1399 21.3307 21.3146Z" fill="white"/>
<path d="M27.9888 26.7668C28.6639 26.7668 29.2107 27.3136 29.2107 27.9888C29.2107 28.6645 28.6634 29.2107 27.9888 29.2107C27.5097 29.2107 24.2795 29.2107 23.5898 29.2107C22.9147 29.2107 22.3679 28.6639 22.3679 27.9888C22.3679 27.3131 22.9152 26.7668 23.5898 26.7668H27.9888Z" fill="white"/>
<mask id="mask0_139_225" style="mask-type:luminance" maskUnits="userSpaceOnUse" x="4" y="4" width="26" height="26">
<path d="M4.77063 4.7706H29.7V29.7H4.77063V4.7706Z" fill="white"/>
</mask>
<g mask="url(#mask0_139_225)">
<path d="M28.0672 26.2802C28.6054 25.1534 27.7815 23.8342 26.5225 23.8342H24.323V5.25991C24.323 4.98974 24.1039 4.7706 23.8343 4.7706H5.25994C4.98977 4.7706 4.77063 4.98974 4.77063 5.25991V29.2107C4.77063 29.4809 4.98977 29.6995 5.25994 29.6995C6.18752 29.6995 26.9076 29.6995 27.9888 29.6995C28.9325 29.6995 29.6995 28.9325 29.6995 27.9888C29.6995 27.0719 28.9744 26.321 28.0672 26.2802ZM26.5225 24.8118C26.9269 24.8118 27.2556 25.1405 27.2556 25.5449C27.2556 25.9494 26.9269 26.2781 26.5225 26.2781H23.5899C23.1854 26.2781 22.8567 25.9494 22.8567 25.5449C22.8567 25.1405 23.1854 24.8118 23.5899 24.8118H26.5225ZM20.4123 5.74868H23.3455V11.1251H20.4123V5.74868ZM5.74871 5.74868H19.4348V11.1251H5.74871V5.74868ZM22.3943 26.7668C21.8668 27.2825 21.7331 28.0683 22.0441 28.7219H5.74871V12.1027H23.3455V23.8519C22.5173 23.9706 21.8792 24.6845 21.8792 25.5449C21.8792 26.0235 22.0763 26.4559 22.3943 26.7668ZM27.9888 28.7219H23.5899C23.1854 28.7219 22.8567 28.3932 22.8567 27.9888C22.8567 27.5849 23.1854 27.2556 23.5899 27.2556C24.1044 27.2556 27.2911 27.2556 27.9888 27.2556C28.3932 27.2556 28.7219 27.5849 28.7219 27.9888C28.7219 28.3932 28.3932 28.7219 27.9888 28.7219Z" fill="#B8267C"/>
</g>
<path d="M14.5471 13.0802C10.19 13.0802 6.75577 16.8873 7.26441 21.2647C7.26548 21.2776 7.26709 21.2905 7.26924 21.3039C7.71021 24.9278 10.8056 27.7444 14.5471 27.7444C18.5985 27.7444 21.8792 24.446 21.8792 20.4123C21.8792 16.3695 18.5899 13.0802 14.5471 13.0802ZM14.5471 26.7669C11.4077 26.7669 8.79302 24.4788 8.28331 21.4828C9.02076 21.0826 10.6396 20.517 12.1945 22.0661C12.8794 22.7493 13.7027 23.1586 14.6733 23.129C16.4533 23.0732 17.8422 21.5279 17.9002 21.4618C18.2139 21.11 18.7349 20.8087 19.2543 20.7899C19.7656 20.7716 20.2877 21.0074 20.8098 21.4898C20.2963 24.482 17.6838 26.7669 14.5471 26.7669ZM19.2194 19.8129C18.034 19.8559 17.2546 20.7147 17.1676 20.8146C17.1177 20.8699 15.971 22.1128 14.6389 22.152C14.0019 22.1713 13.4283 21.9157 12.8842 21.3737C11.3395 19.8344 9.55894 19.8392 8.19307 20.437C8.18233 16.9007 11.0521 14.0583 14.5471 14.0583C18.02 14.0583 20.8506 16.8588 20.9 20.3199C20.3559 19.9633 19.7936 19.7925 19.2194 19.8129Z" fill="#B8267C"/>
<path d="M22.3679 8.43692C22.3679 8.50191 22.355 8.56422 22.3303 8.62383C22.3056 8.68399 22.2702 8.73663 22.2245 8.78228C22.1788 8.82847 22.1257 8.86339 22.0661 8.88863C22.0059 8.91334 21.9436 8.92569 21.8791 8.92569C21.8141 8.92569 21.7518 8.91334 21.6917 8.88863C21.6321 8.86339 21.5789 8.82847 21.5332 8.78228C21.4876 8.73663 21.4521 8.68399 21.4274 8.62383C21.4027 8.56422 21.3898 8.50191 21.3898 8.43692C21.3898 8.37193 21.4027 8.30963 21.4274 8.25001C21.4521 8.18985 21.4876 8.13721 21.5332 8.09102C21.5789 8.04537 21.6321 8.00992 21.6917 7.98521C21.7518 7.9605 21.8141 7.94815 21.8791 7.94815C21.9436 7.94815 22.0059 7.9605 22.0661 7.98521C22.1257 8.00992 22.1788 8.04537 22.2245 8.09102C22.2702 8.13721 22.3056 8.18985 22.3303 8.25001C22.355 8.30963 22.3679 8.37193 22.3679 8.43692Z" fill="#B8267C"/>
<path d="M8.68127 6.97061C7.87292 6.97061 7.21497 7.62803 7.21497 8.43692C7.21497 9.24527 7.87292 9.90323 8.68127 9.90323C9.48962 9.90323 10.1476 9.24527 10.1476 8.43692C10.1476 7.62803 9.48962 6.97061 8.68127 6.97061ZM8.68127 8.92569C8.41165 8.92569 8.1925 8.70655 8.1925 8.43692C8.1925 8.16729 8.41165 7.94815 8.68127 7.94815C8.9509 7.94815 9.17004 8.16729 9.17004 8.43692C9.17004 8.70655 8.9509 8.92569 8.68127 8.92569Z" fill="#B8267C"/>
<path d="M12.5914 6.97061C11.7831 6.97061 11.1251 7.62803 11.1251 8.43692C11.1251 9.24527 11.7831 9.90323 12.5914 9.90323C13.4003 9.90323 14.0583 9.24527 14.0583 8.43692C14.0583 7.62803 13.4003 6.97061 12.5914 6.97061ZM12.5914 8.92569C12.3223 8.92569 12.1027 8.70655 12.1027 8.43692C12.1027 8.16729 12.3223 7.94815 12.5914 7.94815C12.8611 7.94815 13.0802 8.16729 13.0802 8.43692C13.0802 8.70655 12.8611 8.92569 12.5914 8.92569Z" fill="#B8267C"/>
<path d="M16.5021 6.97061C15.6932 6.97061 15.0358 7.62803 15.0358 8.43692C15.0358 9.24527 15.6932 9.90323 16.5021 9.90323C17.3105 9.90323 17.9684 9.24527 17.9684 8.43692C17.9684 7.62803 17.3105 6.97061 16.5021 6.97061ZM16.5021 8.92569C16.2325 8.92569 16.0134 8.70655 16.0134 8.43692C16.0134 8.16729 16.2325 7.94815 16.5021 7.94815C16.7718 7.94815 16.9909 8.16729 16.9909 8.43692C16.9909 8.70655 16.7718 8.92569 16.5021 8.92569Z" fill="#B8267C"/>
</svg>
