<svg width="33" height="34" viewBox="0 0 33 34" fill="none" xmlns="http://www.w3.org/2000/svg">
<g clip-path="url(#clip0_178_479)">
<path d="M26.4412 21.3982L22.9487 20.9915C22.11 20.8934 21.285 21.1878 20.6937 21.7908L18.1637 24.3709C14.2725 22.3517 11.0825 19.1125 9.10249 15.1301L11.6462 12.536C12.2375 11.933 12.5262 11.0917 12.43 10.2363L12.0312 6.70267C11.8662 5.28641 10.6975 4.2207 9.295 4.2207H6.91625C5.3625 4.2207 4.06999 5.53881 4.16624 7.12334C4.89499 19.0985 14.2862 28.6618 26.015 29.405C27.5687 29.5031 28.8612 28.185 28.8612 26.6005V24.1746C28.875 22.7583 27.83 21.5664 26.4412 21.3982Z" fill="#D02D7F"/>
</g>
<defs>
<clipPath id="clip0_178_479">
<rect width="33" height="33.6538" fill="white"/>
</clipPath>
</defs>
</svg>
