<svg width="21" height="30" viewBox="0 0 21 30" fill="none" xmlns="http://www.w3.org/2000/svg">
<path d="M10.5 0.974365C4.85625 0.974365 0.291664 5.62938 0.291664 11.3849C0.291664 17.5867 6.7375 26.1382 9.39166 29.3952C9.975 30.1091 11.0396 30.1091 11.6229 29.3952C14.2625 26.1382 20.7083 17.5867 20.7083 11.3849C20.7083 5.62938 16.1437 0.974365 10.5 0.974365ZM10.5 15.103C8.4875 15.103 6.85416 13.4373 6.85416 11.3849C6.85416 9.33257 8.4875 7.66688 10.5 7.66688C12.5125 7.66688 14.1458 9.33257 14.1458 11.3849C14.1458 13.4373 12.5125 15.103 10.5 15.103Z" fill="#D02D7F"/>
</svg>
